<svg width="233" height="150" viewBox="0 0 233 150" fill="none" xmlns="http://www.w3.org/2000/svg">
<path d="M89.4677 0H178.935L233 74L178.935 150H89.4677H0V74V0H89.4677Z" fill="#002B36"/>
<path d="M108.78 92.6C104.247 92.6 100.314 91.6667 96.9805 89.8C93.6471 87.8 89.7138 84.9333 85.1805 81.2C81.5805 78.1333 78.5805 75.9333 76.1805 74.6C73.9138 73.1333 71.3805 72.4 68.5805 72.4C63.9138 72.4 60.1805 74.1333 57.3805 77.6C54.7138 80.9333 53.2471 85.5333 52.9805 91.4H43.3805C43.6471 81.6667 45.9805 74.2 50.3805 69C54.9138 63.8 60.8471 61.2 68.1805 61.2C72.7138 61.2 76.6471 62.2 79.9805 64.2C83.3138 66.0667 87.2471 68.8667 91.7805 72.6C95.2471 75.6667 98.1805 77.9333 100.58 79.4C102.98 80.8667 105.58 81.6 108.38 81.6C113.047 81.6 116.714 79.8667 119.38 76.4C122.18 72.9333 123.714 68.2667 123.98 62.4H133.58C133.314 72.1333 130.914 79.6 126.38 84.8C121.98 90 116.114 92.6 108.78 92.6Z" fill="#EEE8D5"/>
</svg>
